<?xml version="1.0" encoding="UTF-8"?><svg id="Layer_2" xmlns="http://www.w3.org/2000/svg" xmlns:xlink="http://www.w3.org/1999/xlink" viewBox="0 0 876.33 910.17"><defs><style>.cls-1{fill:url(#linear-gradient);}.cls-2{fill:url(#linear-gradient-2);}.cls-3{fill:#fff;filter:url(#drop-shadow-1);}.cls-4{fill:none;stroke:url(#linear-gradient-3);stroke-miterlimit:10;stroke-width:80px;}</style><linearGradient id="linear-gradient" x1="314.74" y1="405.53" x2="694.77" y2="405.53" gradientTransform="matrix(1, 0, 0, 1, 0, 0)" gradientUnits="userSpaceOnUse"><stop offset="0" stop-color="#588157"/><stop offset="1" stop-color="#344e41"/></linearGradient><linearGradient id="linear-gradient-2" x1="221.38" y1="759.1" x2="493.57" y2="486.9" xlink:href="#linear-gradient"/><filter id="drop-shadow-1" filterUnits="userSpaceOnUse"><feOffset dx="10" dy="6"/><feGaussianBlur result="blur" stdDeviation="20"/><feFlood flood-color="#000" flood-opacity=".75"/><feComposite in2="blur" operator="in"/><feComposite in="SourceGraphic"/></filter><linearGradient id="linear-gradient-3" x1="0" y1="472" x2="876.33" y2="472" xlink:href="#linear-gradient"/></defs><g id="Layer_1-2"><g><path class="cls-1" d="M358.13,742.16v-100c63.21,0,122.63-24.61,167.33-69.31s69.31-104.12,69.31-167.33-24.61-122.63-69.31-167.33c-44.69-44.7-147.51-114.72-210.72-114.72l43.39-54.59c45.42,0,89.51,8.91,131.05,26.48,40.09,16.96,76.09,41.22,106.99,72.12,30.9,30.9,55.17,66.9,72.12,106.99,17.57,41.53,26.47,85.62,26.47,131.05s-8.91,89.51-26.47,131.05c-16.96,40.09-41.22,76.09-72.12,106.99s-66.9,55.17-106.99,72.12c-41.53,17.57-85.62,26.47-131.05,26.47Z"/><rect class="cls-2" x="305.26" y="403.02" width="104.42" height="439.97"/><path class="cls-3" d="M355.56,54.16h151.41c32.52,0,58.91,26.4,58.91,58.91H296.64c0-32.52,26.4-58.91,58.91-58.91Z"/><circle class="cls-4" cx="438.17" cy="472" r="398.17"/></g></g></svg>